<svg id="Layer_1" data-name="Layer 1" xmlns="http://www.w3.org/2000/svg" viewBox="0 0 157.43 162">
  <defs>
    <style>
      .cls-1 {
        fill: #d35e13;
      }
    </style>
  </defs>
  <title>APPROVED_UT Towers</title>
  <path class="cls-1" d="M25.39,132.68,30,130.61,29.9,137l-4.65,2.14ZM24,159.86l4.65-2.07L28.47,162H23.9Zm.64-14.11,4.66-2.07-.14,6.72-4.65,2.13Zm31.49-.2,4.65-2.07-.23,7.1-4.65,2.14ZM41.21,116.36l4.66-2.07-.26,5.49L41,121.91Zm15.16,14.33L61,128.62l-.23,7.1-4.65,2.14ZM39.91,152.61l4.66-2.08-.31,7.39-4.65,2.13Zm.92-27.55L45.49,123l-.23,6.9L40.61,132ZM55.68,160l4.65-2.07L60.16,162H55.59ZM40.27,138.13l4.65-2.06-.31,7.38-4.66,2.13ZM25.77,123.79l4.65-2.07-.36,5.4-4.65,2.13ZM59.43,93.61s-5.41-2.22-3.78-2,2.05-2.15,2.05-2.15l3.52,1.09-.2,1.4A2.06,2.06,0,0,1,59.43,93.61Zm-2.49,24,4.65-2.07-.23,7.1-4.66,2.13ZM37.81,92.24s-.27-3,.22-3.66a6.35,6.35,0,0,0,.77-1.77S39,94,38.75,93.3A2.17,2.17,0,0,0,37.81,92.24Zm5.45,8.94s-5.41-2.22-3.78-2S41.54,97,41.54,97l3.52,1.09-.2,1.4A2.05,2.05,0,0,1,43.26,101.18ZM53.5,40.82l.14-4.16-1.17-.78,1.37-.72L53.72,40ZM37.05,86.24,22.67,93.29l-.12-.59L37,85.34ZM50.21,76.1l-5.28,1.46,4.27-2.73.83-6.3ZM28.48,107.8s-5.4-1.7-3.77-1.55,2.06-1.68,2.06-1.68l3.52.83-.21,1.09C29.87,107.59,28.48,107.8,28.48,107.8Zm32.86,4.36-4.65,2.13.26-5.55,4.65-2.07ZM43.74,83.35c-2.42-2-.85-8.8,1.61-12s5.12-5.42,7.92-5.48a4.4,4.4,0,0,1,3,1c1.28,1.07,1.33,2,1.12,4.32a14.19,14.19,0,0,1-2.68,7.42c-2.39,3.1-5.47,5.81-8.27,5.87A3.76,3.76,0,0,1,43.74,83.35Zm.48-.57a3,3,0,0,0,2.22.95c2.19,0,5-2.08,7.69-5.58a13.38,13.38,0,0,0,2.53-7c.22-2.34.09-2.9-.85-3.68a3.67,3.67,0,0,0-2.52-.8c-2.25.05-4.72,1.8-7.35,5.19C43.59,74.86,42.28,81.16,44.22,82.77ZM156.13,134.9l1.3,27.1H85.75L85.6,90l.75-1.45v-.17L.1,130.55v-1.83L86.29,86.3l0-2.39L0,125.89l0-.94,86.2-42.2L86,74,4.68,113.31l0-1.62L40.55,94.14l-.39.07,0-9.82A8.72,8.72,0,0,1,39,78.75l-2.71,1.43.07,3.45L22.51,90.72l.2-1.36,13.28-7,0-3,3.18-1.77c0-.29.11-.58.18-.87l-1.54.86-1.21-.36,3-1.57A17.26,17.26,0,0,1,40.68,73v-.57l-4.29,2.1-1.21-.35,5.5-2.66v-1L35,73.24l-1.21-.6.2-.1,7.39-9.41v-.26l3.49,2.25-.12,2.31a15.09,15.09,0,0,1,7.15-4.07l-.14-3.28-3.64,1.85-2,3.16L46,62l5.38-2.93a1.82,1.82,0,0,1,.06-1.4l-1.47.78L49,58.28l3.23-1.67a4.12,4.12,0,0,1,.62-.42l-.08-.94L51.53,56l-.7-.25,1.92-1.26v0l1.72.94.4-4.14.47-.87,2.35,2,.55,2.91-1.83-.45.29,2.31,4.25,1.43L64,57.14l.07-.3.24.16.07,0V57l7.06,4.49-2.08,3-.13.63,15.5-7.84,0,1.42-15.8,7.73-.58,2.91.08.06,0,0,16.34-8.26,0-3.86-.19-.09-9.06,4.74V48.49L61.12,56.06l-1.88-.48L75.54,47V40l3.41,2.51.21-22.27-1.81,1s0-2.86.09-4.07a2.33,2.33,0,0,0-1.51-2.44v-.13l-2.39,1.29.8,1.41-.61,23L71.2,42.39l.51,1.09.16,1.59-1.23-.34s.09-22.56.08-24.44a1.93,1.93,0,0,0-1.89-1.88l-2,1.1.76,1.35-.6,23L64.43,46,64.94,47l.16,1.59-1.23-.34S64,25.73,64,23.85A2,2,0,0,0,62.18,22l-2,1.06.7,1.24-.6,23-1.57,1.12.5-16.8s-.41-2.77-2.14-2.9a3.58,3.58,0,0,0-1.58-3.13l-2.25,1.22,1.15,3.53L52.62,32l-4-2.68-.14-1.11,27.41-15,0-4.39L53.3,21l0,2.07-3.42-1.62,26-14.11V6.48L50.22,20.19l-.77-.24L75.87,5.58l0-4.1L60,10.68l-1.34-.33L75.84.26V0L76,.16l.1-.06.07.22,3,2.93,7.52.38v.07l3.79-2.38v0l14.93,11.59-1.51.73,0,1.75,10.19,8.31-1.26,1.53-2.57,1.15.36,3.4,2.12,2.2-.83,1.75-2.4.92L109.92,54l2.55,2.46-1,.53,0,.88,1.09-.64,1.57.66.21,1.72,2.15,1.55.36,2.56,2.81,1.84-.12,2.6,3.59-2,6.63,10.59-1.38,0L128.26,78l-1.53,1.25-.14,1.56-1,1.06,1.4.84L127,86l10.72,7.55.08,3.81-.69,0,.16,7.6,6.19,3.66.15,1.46,9.92,6.54.12,5.71,1.14.62.1,4.67,2.63,1.68.1,4.67ZM86.82,8.72l.05,1.55L91.05,8V6.54Zm3.8,1.93L87,12.53v.16l3.66,2.24,0,0ZM86.68,5,86.8,8l3.61-2,0-3.23ZM52.84,63.21a6.51,6.51,0,0,1,5,1.31,6,6,0,0,1,1.37,1.66l4.31-2.55-.08-.06-.06-2.78-4.16,2.1-1-.53,5.26-2.54.24-1.13L58,61.42l-1-.2-.05,1-.67-.06-.1-1.26,3.31-1.62L55.1,58.17l-1.77,1.42ZM41.45,66.45l0-1.9-5.67,7.1,2.78-1.41Zm1,18.2A4.48,4.48,0,0,0,45.64,86c3.31-.07,7-3,9.83-6.64A17.47,17.47,0,0,0,59,70.51c.25-2.68-.16-3.93-1.68-5.18a5.27,5.27,0,0,0-3.58-1.14c-3.31.07-6.54,2.8-9.37,6.42S39.57,82.29,42.43,84.65Zm-.26,1.56v.06h.12ZM64.77,64.61l-.62-.47-4.6,2.8a11,11,0,0,1,.16,7l.44.78-.68.47L59.72,81l-.57.12-.05,2.85-.91.14L58,81.91l-.46-.33-.15-1.48-.44.81-.43,1.15-4.89,3.65a11.3,11.3,0,0,1-4.92,1.93,10.38,10.38,0,0,1-4.56-1.07l0,6.79L64.09,82.62,63.6,72.7l-1.13-2.39,2.13-.85ZM86,71.9l-1.29.33.07-10.1L69,69.84l.45.32-1.29,2.18L69,74.2l-.77,1.9.28,4.35Zm5-10.42-.19-12.56L85.72,51.4c0,.79-.08,1.5-.08,1.5l2.82,2.25-1.52,3.14-1.9-.9Zm.94-43.41c-.06-.77-.72-1.1-1.32-1.24v0l-.05,0a4.21,4.21,0,0,0-1-.08v0c-.46.2-.93.86-1.07,2.66.28,6.95.12,21.84.12,21.84l-.4.77-.89.23.09,1.1-1.56.62v-.41l-.11,2.9,1.62,2.07-1.52.69s0,.36,0,.86l5-2.52-.07-4.86-3.4,1.82-.83-.19L90.69,42l0-1.85,1.23,1.1S92,19.55,91.92,18.07Z"/>
</svg>
